<svg width="32" height="32" xmlns="http://www.w3.org/2000/svg">
 <g>
  <title>background</title>
  <rect fill="none" id="canvas_background" height="34" width="34" y="-1" x="-1"/>
 </g>

 <g>
  <title>Layer 1</title>
  <g stroke="null" id="svg_8">
   <path stroke="null" fill="#ffffff" stroke-width="0.705556px" id="path4487" d="m0.344685,27.03556l31.276061,-0.000086l0,3.282686l-31.276061,0l0,-3.2826z"/>
   <path stroke="null" fill="#ffffff" stroke-width="0.705556px" stroke-miterlimit="4" stroke-dashoffset="0" id="path4546" d="m0.340815,10.267429l14.473791,0l0,3.022712l-14.473791,0l0,-3.022712z"/>
   <path stroke="null" fill="#ffffff" stroke-width="0.705556px" stroke-miterlimit="4" stroke-dashoffset="0" id="path4564" d="m21.947105,1.593606a6.009728,6.202785 0 0 0 -6.009811,6.202742a6.009728,6.202785 0 0 0 6.009811,6.202828a6.009728,6.202785 0 0 0 6.009728,-6.202828a6.009728,6.202785 0 0 0 -6.009728,-6.202742zm0,2.480994a3.605853,3.721705 0 0 1 3.605771,3.721748a3.605853,3.721705 0 0 1 -3.605771,3.72162a3.605853,3.721705 0 0 1 -3.605853,-3.72162a3.605853,3.721705 0 0 1 3.605853,-3.721748z"/>
   <path stroke="null" fill="#ffffff" stroke-width="0.705556px" id="svg_1" d="m0.327903,18.48901l31.181108,-0.000086l0,3.282686l-31.181108,0l0,-3.2826z"/>
   <path stroke="null" fill="#ffffff" stroke-width="0.705556px" stroke-miterlimit="4" stroke-dashoffset="0" id="svg_2" d="m0.357598,2.083551l14.456956,0l0,3.02271l-14.456956,0l0,-3.02271z"/>
   <path stroke="null" fill="#ffffff" stroke-width="0.705556px" stroke-miterlimit="4" stroke-dashoffset="0" id="svg_6" d="m25.76956,9.437102l6.00012,5.86109l-1.848036,1.805215l-6.00012,-5.86109l1.848036,-1.805215z"/>
  </g>
 </g>
</svg>
